<?xml version="1.0" encoding="utf-8"?>
<!-- Generator: Adobe Illustrator 19.0.0, SVG Export Plug-In . SVG Version: 6.00 Build 0)  -->
<svg version="1.1" id="Layer_1" xmlns="http://www.w3.org/2000/svg" xmlns:xlink="http://www.w3.org/1999/xlink" x="0px" y="0px"
	 viewBox="0 0 500 500" style="enable-background:new 0 0 500 500;" xml:space="preserve">
<style type="text/css">
	.st0{fill:#3D5A98;}
	.st1{fill:#FFFFFF;}
</style>
<g id="XMLID_1_">
	<path id="Blue_1_" class="st0" d="M419,440c11.6,0,21-9.4,21-21V81c0-11.6-9.4-21-21-21H81c-11.6,0-21,9.4-21,21V419
		c0,11.6,9.4,21,21,21H419z"/>
	<path id="f" class="st1" d="M322.2,440V292.8h49.4l7.4-57.3h-56.8v-36.6c0-16.6,4.6-27.9,28.4-27.9l30.4,0v-51.3
		c-5.3-0.7-23.3-2.3-44.3-2.3c-43.8,0-73.8,26.7-73.8,75.8v42.3h-49.5v57.3H263V440H322.2z"/>
</g>
</svg>
